<svg fill="none" height="24" viewBox="0 0 24 24" width="24" xmlns="http://www.w3.org/2000/svg"><g stroke="#33363f" stroke-width="2"><g stroke-linecap="round"><path d="m19 11v-2.8c0-1.1201 0-1.68016-.218-2.10798-.1917-.37633-.4977-.68229-.874-.87403-.4278-.21799-.9879-.21799-2.108-.21799h-8.6c-1.1201 0-1.68016 0-2.10798.21799-.37633.19174-.68229.4977-.87403.87403-.21799.42782-.21799.98787-.21799 2.10798v5.6c0 1.1201 0 1.6802.21799 2.108.19174.3763.4977.6823.87403.874.42782.218.98787.218 2.10798.218h6.8"/><path d="m8 13h4"/><path d="m8 9h7"/></g><circle cx="18" cy="15" r="1"/><path d="m20 20s-.5-1-2-1-2 1-2 1" stroke-linecap="round"/></g></svg>